<?xml version="1.0" encoding="utf-8"?>
<!-- Generator: Adobe Illustrator 16.0.0, SVG Export Plug-In . SVG Version: 6.00 Build 0)  -->
<!DOCTYPE svg PUBLIC "-//W3C//DTD SVG 1.1//EN" "http://www.w3.org/Graphics/SVG/1.1/DTD/svg11.dtd">
<svg version="1.1" id="Layer_1" xmlns="http://www.w3.org/2000/svg" xmlns:xlink="http://www.w3.org/1999/xlink" x="0px" y="0px"
	 width="30px" height="30px" viewBox="0 0 30 30" enable-background="new 0 0 30 30" xml:space="preserve">
<g>
	<polygon fill="#E0E0E0" points="14.487,27.047 12.168,23.854 14.121,22.495 14.574,23.146 15.082,22.521 16.979,23.994 	"/>
	<path fill="#E0E0E0" d="M8.175,17.447c0.283,0.592,2.234,3.785,2.659,4.408c0.679-0.424,1.979-1.301,1.979-1.301l-2.545-4.269
		C10.269,16.287,8.883,17.051,8.175,17.447z"/>
	<path fill="#E0E0E0" d="M21.164,17.588c-0.281,0.594-2.29,3.786-2.715,4.409c-0.68-0.425-1.98-1.302-1.98-1.302l2.604-4.268
		C19.07,16.43,20.457,17.191,21.164,17.588z"/>
	<path fill="#E0E0E0" d="M5.646,9.957C6.522,9.93,7.371,9.873,8.021,9.873c0.059,1.187,0.681,3.393,1.219,4.438
		c-0.793,0.34-1.301,0.566-2.18,0.935C6.664,14.396,5.646,11.486,5.646,9.957z"/>
	<path fill="#E0E0E0" d="M23.855,10.146c-0.877-0.029-1.728-0.085-2.377-0.085c-0.058,1.187-0.681,3.392-1.217,4.438
		c0.793,0.34,1.301,0.563,2.18,0.935C22.837,14.584,23.855,11.673,23.855,10.146z"/>
	<path fill="#E0E0E0" d="M10.993,4.581L9.535,2.702C8.22,3.648,6.892,5.429,6.156,7.21l2.221,0.862
		C8.813,6.941,9.804,5.429,10.993,4.581z"/>
	<path fill="#E0E0E0" d="M18.695,4.721l1.459-1.879c1.313,0.947,2.645,2.728,3.379,4.509l-2.221,0.862
		C20.875,7.081,19.885,5.57,18.695,4.721z"/>
	<path fill="#E0E0E0" d="M12.086,1.413l0.593,2.309c1.389-0.378,3.058-0.378,4.357,0.066l0.668-2.291
		C15.697,0.951,14.293,0.941,12.086,1.413z"/>
</g>
</svg>
