<?xml version="1.0" encoding="utf-8"?>
<!-- Generator: Adobe Illustrator 16.0.0, SVG Export Plug-In . SVG Version: 6.00 Build 0)  -->
<!DOCTYPE svg PUBLIC "-//W3C//DTD SVG 1.1//EN" "http://www.w3.org/Graphics/SVG/1.1/DTD/svg11.dtd">
<svg version="1.1" id="Layer_1" xmlns="http://www.w3.org/2000/svg" xmlns:xlink="http://www.w3.org/1999/xlink" x="0px" y="0px"
	 width="30px" height="30px" viewBox="0 0 30 30" enable-background="new 0 0 30 30" xml:space="preserve">
<path fill="#EEEEEE" d="M10.274,17.971c0.426,0.799,0.94,1.684,1.533,2.644l9.093-5.196c0.619-1.433,0.996-2.736,0.996-3.777
	c0-0.108-0.013-0.214-0.018-0.321L10.274,17.971z"/>
<path fill="#EEEEEE" d="M12.883,22.302c0.576,0.873,1.215,1.806,1.929,2.804c1.542-1.979,3.125-4.236,4.404-6.422L12.883,22.302z"/>
<path fill="#EEEEEE" d="M8.337,13.292c0.192,0.778,0.518,1.724,1.046,2.884l12.079-6.923c-0.354-0.959-0.913-1.821-1.63-2.526
	L8.337,13.292z"/>
<path fill="#EEEEEE" d="M18.029,5.455c-0.916-0.451-1.941-0.71-3.029-0.71c-3.623,0-6.596,2.81-6.87,6.363L18.029,5.455z"/>
<path fill="#EAB53D" d="M6.104,11.641c0,3.354,2.573,8.492,7.866,15.708l0.766,1.045l0.817-1.006
	c1.957-2.41,8.346-10.67,8.346-15.748c0-3.022-1.519-5.692-3.828-7.301c0,0-1.053-0.658-1.605-0.893
	C17.398,2.995,16.229,2.744,15,2.744c-1.229,0-2.4,0.25-3.466,0.703C8.346,4.801,6.104,7.964,6.104,11.641z M15,4.744
	c1.088,0,2.113,0.26,3.029,0.71L8.13,11.107C8.404,7.554,11.377,4.744,15,4.744z M21.896,11.641c0,1.041-0.377,2.344-0.996,3.777
	l-9.093,5.196c-0.593-0.96-1.107-1.845-1.533-2.644L21.88,11.32C21.885,11.427,21.896,11.532,21.896,11.641z M14.812,25.104
	c-0.714-0.998-1.353-1.93-1.929-2.803l6.333-3.617C17.938,20.868,16.354,23.127,14.812,25.104z M21.462,9.254L9.383,16.177
	c-0.528-1.161-0.854-2.106-1.046-2.884l11.495-6.564C20.549,7.433,21.105,8.294,21.462,9.254z"/>
</svg>
